<svg width="1982" height="997" viewBox="0 0 1982 997" fill="none" xmlns="http://www.w3.org/2000/svg">
<path d="M932.523 372.678L876.633 585.149C859.416 588.061 840.244 588.703 819.117 585.149L780.129 442.538L740.486 585.149C722.94 588.387 704.423 588.703 683.625 585.149L627.408 372.678C645.608 368.799 663.153 369.125 680.044 372.678L716.434 522.407L751.524 372.678C769.069 369.125 789.868 368.799 808.058 372.678L850.3 523.058L879.866 372.678C898.066 368.799 915.928 369.125 932.502 372.678H932.523Z" fill="#2C2A29"/>
<path d="M929.163 503.65C929.163 451.905 964.254 419.566 1013.96 419.566C1063.67 419.566 1098.76 453.198 1098.76 503.65C1098.76 554.103 1065.3 588.06 1013.96 588.06C962.627 588.06 929.163 554.755 929.163 503.65ZM1049.71 503.65C1049.71 477.136 1036.72 461.608 1013.96 461.608C991.211 461.608 978.218 477.136 978.218 503.65C978.218 530.165 991.538 546.018 1013.96 546.018C1036.39 546.018 1049.71 531.468 1049.71 503.65Z" fill="#2C2A29"/>
<path d="M1368.76 469.695V584.824H1320.35V486.842C1320.35 469.705 1309.3 460.969 1289.81 460.969C1280.71 460.969 1271.94 462.914 1264.78 465.815C1267.38 472.933 1268.68 480.691 1268.68 489.102V584.824H1220.27V486.842C1220.27 469.705 1209.22 460.969 1189.73 460.969C1182.27 460.969 1175.11 461.936 1168.93 463.555V584.824H1119.87L1120.2 440.92C1139.7 427.337 1170.23 419.904 1195.9 419.904C1216.37 419.904 1233.92 426.696 1246.59 437.693C1263.17 427.022 1286.24 419.904 1305.73 419.904C1341.14 419.904 1368.76 438.66 1368.76 469.705V469.695Z" fill="#2C2A29"/>
<path d="M1562.48 509.15C1562.48 553.127 1541.69 588.062 1492.62 588.062C1477.67 588.062 1461.43 583.215 1447.78 573.827V633.657C1436.73 642.383 1411.72 649.501 1398.71 649.501V432.509C1414.63 425.077 1440.63 419.894 1467.6 419.894C1526.41 419.894 1562.47 451.906 1562.47 509.15H1562.48ZM1513.74 503.326C1513.74 479.398 1500.74 458.698 1470.52 458.698C1463.7 458.698 1455.9 459.349 1447.78 460.643V545.053C1454.28 546.346 1462.08 547.313 1471.82 547.313C1497.82 547.313 1513.74 535.349 1513.74 503.336V503.326Z" fill="#2C2A29"/>
<path d="M1583.27 373.32C1583.27 359.737 1594.65 348.425 1608.3 348.425C1621.94 348.425 1633.64 359.422 1633.64 373.32C1633.64 387.218 1622.26 398.226 1608.3 398.226C1594.33 398.226 1583.27 387.229 1583.27 373.32ZM1583.93 424.424C1590.75 421.512 1599.2 419.893 1608.62 419.893C1618.05 419.893 1626.17 421.512 1632.99 424.424V584.824H1583.93V424.424Z" fill="#2C2A29"/>
<path d="M567.674 375.38V434.411C567.674 437.954 565.942 441.287 563.037 443.337L506.408 483.255C506.408 483.255 506.355 483.287 506.334 483.308C503.715 485.19 502.067 488.113 501.813 491.288C501.782 491.592 501.771 491.897 501.771 492.202V583.12C501.771 586.137 499.31 588.587 496.278 588.587H492.106C490.152 588.587 488.345 587.546 487.363 585.874L429.424 487.009C429.424 487.009 429.403 486.967 429.382 486.956C428.115 484.875 424.872 485.768 424.872 488.228V583.12C424.872 586.137 422.411 588.587 419.379 588.587H415.207C413.252 588.587 411.446 587.546 410.464 585.874L350.18 483.024C348.722 480.554 347.962 477.736 347.962 474.866V375.38C347.962 372.352 350.423 369.913 353.455 369.913H357.627C359.571 369.913 361.377 370.943 362.37 372.615L420.308 471.481C421.565 473.625 424.861 472.742 424.861 470.261V375.38C424.861 372.352 427.322 369.913 430.354 369.913H434.526C436.47 369.913 438.276 370.943 439.269 372.615L497.208 471.481C498.465 473.625 501.76 472.742 501.76 470.261V418.379C501.76 413.122 504.317 408.192 508.626 405.153L557.196 370.912C558.125 370.26 559.234 369.913 560.375 369.913H562.181C565.213 369.913 567.674 372.352 567.674 375.38Z" fill="#2C2A29"/>
</svg>
